<?xml version="1.0" encoding="UTF-8"?>
<!-- Created with Inkscape (http://www.inkscape.org/) -->
<svg width="105.01mm" height="24.19mm" version="1.1" viewBox="0 0 105.01 24.19" xmlns="http://www.w3.org/2000/svg" xmlns:cc="http://creativecommons.org/ns#" xmlns:dc="http://purl.org/dc/elements/1.1/" xmlns:rdf="http://www.w3.org/1999/02/22-rdf-syntax-ns#">
 <metadata>
  <rdf:RDF>
   <cc:Work rdf:about="">
    <dc:format>image/svg+xml</dc:format>
    <dc:type rdf:resource="http://purl.org/dc/dcmitype/StillImage"/>
    <dc:title/>
   </cc:Work>
  </rdf:RDF>
 </metadata>
 <g transform="translate(-49.609 -202.1)">
  <g fill="#fff" shape-rendering="auto">
   <path d="m62.545 214.28-0.27734 0.23047c-2.4801 2.0769-3.9138 5.146-3.918 8.3808v2e-3c0.0021 0.41308 0.02744 0.82613 0.07617 1.2363l0.0293 0.25976 0.24414 0.0918c1.227 0.46547 2.5276 0.70647 3.8398 0.71094h2e-3c1.3046-2e-3 2.5988-0.23914 3.8203-0.69727l0.24219-0.0898 0.0332-0.25782c0.05266-0.41482 0.08103-0.83187 0.08594-1.25v-6e-3c-1.15e-4 -3.2322-1.4284-6.2988-3.9023-8.3789zm0 1.25c2.0648 1.905 3.3183 4.5379 3.3184 7.3613-0.0034 0.28276-0.0295 0.56433-0.05664 0.84571-1.0523 0.36394-2.1491 0.59358-3.2637 0.5957-1.1217-4e-3 -2.2256-0.23932-3.2832-0.60937-0.02442-0.27697-0.04931-0.55391-0.05078-0.83204 0.0037-2.8269 1.2643-5.4586 3.3359-7.3613z" color="#000000" color-rendering="auto" dominant-baseline="auto" image-rendering="auto" solid-color="#000000" style="font-feature-settings:normal;font-variant-alternates:normal;font-variant-caps:normal;font-variant-ligatures:normal;font-variant-numeric:normal;font-variant-position:normal;isolation:auto;mix-blend-mode:normal;shape-padding:0;text-decoration-color:#000000;text-decoration-line:none;text-decoration-style:solid;text-indent:0;text-orientation:mixed;text-transform:none;white-space:normal"/>
   <path d="m55.773 211.94c-1.2537 4e-3 -2.4982 0.22363-3.6777 0.64843l-0.34961 0.125 0.07422 0.36524c1.0405 5.0892 5.5204 8.7501 10.715 8.7559h2e-3c1.2537-4e-3 2.4982-0.22364 3.6777-0.64844l0.34961-0.125-0.07422-0.36523c-1.0405-5.0892-5.5204-8.7501-10.715-8.7559zm0 0.85937h2e-3c4.6384 6e-3 8.5896 3.1952 9.7109 7.6562-0.95854 0.29793-1.9438 0.51632-2.9492 0.51953-4.6393-5e-3 -8.5914-3.1946-9.7129-7.6562 0.95854-0.29792 1.9438-0.51632 2.9492-0.51953z" color="#000000" color-rendering="auto" dominant-baseline="auto" image-rendering="auto" solid-color="#000000" style="font-feature-settings:normal;font-variant-alternates:normal;font-variant-caps:normal;font-variant-ligatures:normal;font-variant-numeric:normal;font-variant-position:normal;isolation:auto;mix-blend-mode:normal;shape-padding:0;text-decoration-color:#000000;text-decoration-line:none;text-decoration-style:solid;text-indent:0;text-orientation:mixed;text-transform:none;white-space:normal"/>
   <path d="m69.299 211.94c-5.1962 5.9e-4 -9.6809 3.6597-10.725 8.75l-0.07617 0.36328 0.34961 0.12695c1.1821 0.42792 2.4303 0.64965 3.6875 0.6543h2e-3c5.1963-3.6e-4 9.6807-3.6597 10.725-8.75l0.07422-0.36328-0.34961-0.12696c-1.1822-0.42809-2.4282-0.64957-3.6855-0.65429zm-2e-3 0.85937h2e-3c1.0094 4e-3 1.9973 0.22445 2.959 0.52539-1.1246 4.4625-5.0798 7.6501-9.7207 7.6504-1.0092-4e-3 -1.9973-0.22477-2.959-0.52539 1.1249-4.461 5.0793-7.649 9.7188-7.6504z" color="#000000" color-rendering="auto" dominant-baseline="auto" image-rendering="auto" solid-color="#000000" style="font-feature-settings:normal;font-variant-alternates:normal;font-variant-caps:normal;font-variant-ligatures:normal;font-variant-numeric:normal;font-variant-position:normal;isolation:auto;mix-blend-mode:normal;shape-padding:0;text-decoration-color:#000000;text-decoration-line:none;text-decoration-style:solid;text-indent:0;text-orientation:mixed;text-transform:none;white-space:normal"/>
   <path d="m62.533 204.44-0.27539 0.23243c-1.8817 1.5863-3.1755 3.7609-3.6699 6.1719l-0.07422 0.36523 0.34961 0.125c1.1784 0.42527 2.4211 0.64549 3.6738 0.6504h4e-3c1.2537-4e-3 2.4962-0.22169 3.6758-0.64649l0.35156-0.12695-0.07617-0.36524c-0.4976-2.4136-1.7944-4.589-3.6816-6.1738zm2e-3 1.2168c1.452 1.3297 2.4718 3.039 2.9551 4.9473-0.95858 0.29818-1.9437 0.51807-2.9492 0.52148-1.0058-4e-3 -1.9906-0.22263-2.9492-0.52148 0.48043-1.907 1.4952-3.6163 2.9434-4.9473z" color="#000000" color-rendering="auto" dominant-baseline="auto" image-rendering="auto" solid-color="#000000" style="font-feature-settings:normal;font-variant-alternates:normal;font-variant-caps:normal;font-variant-ligatures:normal;font-variant-numeric:normal;font-variant-position:normal;isolation:auto;mix-blend-mode:normal;shape-padding:0;text-decoration-color:#000000;text-decoration-line:none;text-decoration-style:solid;text-indent:0;text-orientation:mixed;text-transform:none;white-space:normal"/>
   <path d="m62.541 203.33c-6.0319 1e-5 -10.932 4.8998-10.932 10.932-6e-6 6.0319 4.8998 10.932 10.932 10.932 6.0319 0 10.932-4.8998 10.932-10.932 1e-6 -6.0319-4.8998-10.932-10.932-10.932zm0 0.86133c5.5673 0 10.072 4.503 10.072 10.07 6e-6 5.5673-4.5049 10.072-10.072 10.072-5.5673 0-10.07-4.505-10.07-10.072 0-5.5673 4.503-10.07 10.07-10.07z" color="#000000" color-rendering="auto" dominant-baseline="auto" image-rendering="auto" solid-color="#000000" style="font-feature-settings:normal;font-variant-alternates:normal;font-variant-caps:normal;font-variant-ligatures:normal;font-variant-numeric:normal;font-variant-position:normal;isolation:auto;mix-blend-mode:normal;shape-padding:0;text-decoration-color:#000000;text-decoration-line:none;text-decoration-style:solid;text-indent:0;text-orientation:mixed;text-transform:none;white-space:normal"/>
  </g>
  <text x="80.696777" y="217.74228" fill="#ffffff" font-family="'Segoe UI Emoji'" font-size="19.756px" letter-spacing="0px" stroke-width=".30119" word-spacing="0px" style="line-height:1.25" xml:space="preserve"><tspan x="80.696777" y="217.74228" fill="#ffffff" font-family="FreeSans" font-size="19.756px" stroke-width=".30119">BISWAS</tspan></text>
  <text x="82.118782" y="225.22523" fill="#ffffff" font-family="sans-serif" font-size="6.9497px" letter-spacing="0px" stroke-width=".26458" word-spacing="0px" style="font-feature-settings:normal;font-variant-caps:all-small-caps;font-variant-ligatures:normal;font-variant-numeric:normal;font-variant-position:normal;line-height:1.25" xml:space="preserve"><tspan x="82.118782" y="225.22523" fill="#ffffff" font-family="sans-serif" font-size="6.9497px" stroke-width=".26458" style="font-feature-settings:normal;font-variant-caps:all-small-caps;font-variant-ligatures:normal;font-variant-numeric:normal;font-variant-position:normal">C   A   P   I   T   A   L</tspan></text>
  <rect x="77.6" y="203.32" width=".39688" height="21.889" fill="#fff" style="paint-order:markers stroke fill"/>
 </g>
</svg>
