<?xml version="1.0" encoding="UTF-8" standalone="no"?>
<!-- Created with Inkscape (http://www.inkscape.org/) -->

<svg
   xmlns:dc="http://purl.org/dc/elements/1.1/"
   xmlns:cc="http://creativecommons.org/ns#"
   xmlns:rdf="http://www.w3.org/1999/02/22-rdf-syntax-ns#"
   xmlns:svg="http://www.w3.org/2000/svg"
   xmlns="http://www.w3.org/2000/svg"
   xmlns:sodipodi="http://sodipodi.sourceforge.net/DTD/sodipodi-0.dtd"
   xmlns:inkscape="http://www.inkscape.org/namespaces/inkscape"
   width="109.00813mm"
   height="24.189693mm"
   viewBox="0 0 109.00811 24.189694"
   version="1.1"
   id="svg9008"
   inkscape:version="0.92.4 (5da689c313, 2019-01-14)"
   sodipodi:docname="logo3.svg"
   inkscape:export-filename="C:\Users\sudbiswas\Desktop\BiswasCapital.png"
   inkscape:export-xdpi="299.99313"
   inkscape:export-ydpi="299.99313">
  <defs
     id="defs9002" />
  <sodipodi:namedview
     id="base"
     pagecolor="#ffffff"
     bordercolor="#666666"
     borderopacity="1.0"
     inkscape:pageopacity="0.0"
     inkscape:pageshadow="2"
     inkscape:zoom="1.3175446"
     inkscape:cx="300.65108"
     inkscape:cy="45.202783"
     inkscape:document-units="px"
     inkscape:current-layer="layer1"
     showgrid="false"
     showborder="true"
     inkscape:window-width="1920"
     inkscape:window-height="986"
     inkscape:window-x="-11"
     inkscape:window-y="-11"
     inkscape:window-maximized="1"
     showguides="true"
     inkscape:guide-bbox="true"
     inkscape:object-nodes="false"
     fit-margin-top="1"
     fit-margin-left="4"
     fit-margin-right="4"
     fit-margin-bottom="1" />
  <metadata
     id="metadata9005">
    <rdf:RDF>
      <cc:Work
         rdf:about="">
        <dc:format>image/svg+xml</dc:format>
        <dc:type
           rdf:resource="http://purl.org/dc/dcmitype/StillImage" />
        <dc:title></dc:title>
      </cc:Work>
    </rdf:RDF>
  </metadata>
  <g
     inkscape:label="Layer 1"
     inkscape:groupmode="layer"
     id="layer1"
     transform="translate(-47.609375,-202.10341)">
    <path
       style="color:#000000;font-style:normal;font-variant:normal;font-weight:normal;font-stretch:normal;font-size:medium;line-height:normal;font-family:sans-serif;font-variant-ligatures:normal;font-variant-position:normal;font-variant-caps:normal;font-variant-numeric:normal;font-variant-alternates:normal;font-feature-settings:normal;text-indent:0;text-align:start;text-decoration:none;text-decoration-line:none;text-decoration-style:solid;text-decoration-color:#000000;letter-spacing:normal;word-spacing:normal;text-transform:none;writing-mode:lr-tb;direction:ltr;text-orientation:mixed;dominant-baseline:auto;baseline-shift:baseline;text-anchor:start;white-space:normal;shape-padding:0;clip-rule:nonzero;display:inline;overflow:visible;visibility:visible;opacity:1;isolation:auto;mix-blend-mode:normal;color-interpolation:sRGB;color-interpolation-filters:linearRGB;solid-color:#000000;solid-opacity:1;vector-effect:none;fill:#f9f9f9;fill-opacity:1;fill-rule:nonzero;stroke:none;stroke-width:0.85957015;stroke-linecap:butt;stroke-linejoin:miter;stroke-miterlimit:4;stroke-dasharray:none;stroke-dashoffset:0;stroke-opacity:1;color-rendering:auto;image-rendering:auto;shape-rendering:auto;text-rendering:auto;enable-background:accumulate"
       d="m 62.544922,214.2793 -0.277344,0.23047 c -2.4801,2.07694 -3.913756,5.14595 -3.917969,8.38085 v 0.002 c 0.0021,0.41308 0.02744,0.82613 0.07617,1.23633 l 0.0293,0.25976 0.244141,0.0918 c 1.226961,0.46547 2.527565,0.70647 3.839843,0.71094 h 0.002 c 1.304609,-0.002 2.598785,-0.23914 3.820312,-0.69727 l 0.242188,-0.0898 0.0332,-0.25782 c 0.05266,-0.41482 0.08103,-0.83187 0.08594,-1.25 v -0.004 -0.002 c -1.15e-4,-3.23221 -1.428403,-6.2988 -3.902344,-8.3789 z m 0,1.25 c 2.064757,1.90503 3.318258,4.53787 3.318359,7.36132 -0.0034,0.28276 -0.0295,0.56433 -0.05664,0.84571 -1.052272,0.36394 -2.149051,0.59358 -3.263672,0.5957 -1.121714,-0.004 -2.22558,-0.23932 -3.283203,-0.60937 -0.02442,-0.27697 -0.04931,-0.55391 -0.05078,-0.83204 0.0037,-2.82689 1.264314,-5.45858 3.335938,-7.36132 z"
       id="path9425"
       inkscape:connector-curvature="0" />
    <path
       style="color:#000000;font-style:normal;font-variant:normal;font-weight:normal;font-stretch:normal;font-size:medium;line-height:normal;font-family:sans-serif;font-variant-ligatures:normal;font-variant-position:normal;font-variant-caps:normal;font-variant-numeric:normal;font-variant-alternates:normal;font-feature-settings:normal;text-indent:0;text-align:start;text-decoration:none;text-decoration-line:none;text-decoration-style:solid;text-decoration-color:#000000;letter-spacing:normal;word-spacing:normal;text-transform:none;writing-mode:lr-tb;direction:ltr;text-orientation:mixed;dominant-baseline:auto;baseline-shift:baseline;text-anchor:start;white-space:normal;shape-padding:0;clip-rule:nonzero;display:inline;overflow:visible;visibility:visible;opacity:1;isolation:auto;mix-blend-mode:normal;color-interpolation:sRGB;color-interpolation-filters:linearRGB;solid-color:#000000;solid-opacity:1;vector-effect:none;fill:#f9f9f9;fill-opacity:1;fill-rule:nonzero;stroke:none;stroke-width:0.85957021;stroke-linecap:butt;stroke-linejoin:miter;stroke-miterlimit:4;stroke-dasharray:none;stroke-dashoffset:0;stroke-opacity:1;color-rendering:auto;image-rendering:auto;shape-rendering:auto;text-rendering:auto;enable-background:accumulate"
       d="m 55.773438,211.94141 c -1.253714,0.004 -2.498177,0.22363 -3.677735,0.64843 l -0.349609,0.125 0.07422,0.36524 c 1.040455,5.08919 5.520382,8.75008 10.714844,8.75586 h 0.002 c 1.253712,-0.004 2.49818,-0.22364 3.677735,-0.64844 l 0.349609,-0.125 -0.07422,-0.36523 c -1.040458,-5.08919 -5.520387,-8.75009 -10.714843,-8.75586 z m 0,0.85937 h 0.002 c 4.638432,0.006 8.589576,3.19525 9.710937,7.65625 -0.958535,0.29793 -1.943793,0.51632 -2.949219,0.51953 -4.639278,-0.005 -8.591372,-3.1946 -9.71289,-7.65625 0.958537,-0.29792 1.943792,-0.51632 2.949219,-0.51953 z"
       id="path9427"
       inkscape:connector-curvature="0" />
    <path
       style="color:#000000;font-style:normal;font-variant:normal;font-weight:normal;font-stretch:normal;font-size:medium;line-height:normal;font-family:sans-serif;font-variant-ligatures:normal;font-variant-position:normal;font-variant-caps:normal;font-variant-numeric:normal;font-variant-alternates:normal;font-feature-settings:normal;text-indent:0;text-align:start;text-decoration:none;text-decoration-line:none;text-decoration-style:solid;text-decoration-color:#000000;letter-spacing:normal;word-spacing:normal;text-transform:none;writing-mode:lr-tb;direction:ltr;text-orientation:mixed;dominant-baseline:auto;baseline-shift:baseline;text-anchor:start;white-space:normal;shape-padding:0;clip-rule:nonzero;display:inline;overflow:visible;visibility:visible;opacity:1;isolation:auto;mix-blend-mode:normal;color-interpolation:sRGB;color-interpolation-filters:linearRGB;solid-color:#000000;solid-opacity:1;vector-effect:none;fill:#f9f9f9;fill-opacity:1;fill-rule:nonzero;stroke:none;stroke-width:0.85957021;stroke-linecap:butt;stroke-linejoin:miter;stroke-miterlimit:4;stroke-dasharray:none;stroke-dashoffset:0;stroke-opacity:1;color-rendering:auto;image-rendering:auto;shape-rendering:auto;text-rendering:auto;enable-background:accumulate"
       d="m 69.298828,211.94141 c -5.196235,5.9e-4 -9.680917,3.65966 -10.724609,8.75 l -0.07617,0.36328 0.349609,0.12695 c 1.182127,0.42792 2.430315,0.64965 3.6875,0.6543 h 0.002 c 5.196267,-3.6e-4 9.680723,-3.65967 10.72461,-8.75 l 0.07422,-0.36328 -0.34961,-0.12696 c -1.182232,-0.42809 -2.428201,-0.64957 -3.685547,-0.65429 z m -0.002,0.85937 h 0.002 c 1.009365,0.004 1.997267,0.22445 2.958984,0.52539 -1.124628,4.46252 -5.079775,7.65007 -9.720703,7.65039 -1.009245,-0.004 -1.997307,-0.22477 -2.958984,-0.52539 1.124874,-4.46102 5.079268,-7.64896 9.71875,-7.65039 z"
       id="path9429"
       inkscape:connector-curvature="0" />
    <path
       style="color:#000000;font-style:normal;font-variant:normal;font-weight:normal;font-stretch:normal;font-size:medium;line-height:normal;font-family:sans-serif;font-variant-ligatures:normal;font-variant-position:normal;font-variant-caps:normal;font-variant-numeric:normal;font-variant-alternates:normal;font-feature-settings:normal;text-indent:0;text-align:start;text-decoration:none;text-decoration-line:none;text-decoration-style:solid;text-decoration-color:#000000;letter-spacing:normal;word-spacing:normal;text-transform:none;writing-mode:lr-tb;direction:ltr;text-orientation:mixed;dominant-baseline:auto;baseline-shift:baseline;text-anchor:start;white-space:normal;shape-padding:0;clip-rule:nonzero;display:inline;overflow:visible;visibility:visible;opacity:1;isolation:auto;mix-blend-mode:normal;color-interpolation:sRGB;color-interpolation-filters:linearRGB;solid-color:#000000;solid-opacity:1;vector-effect:none;fill:#f9f9f9;fill-opacity:1;fill-rule:nonzero;stroke:none;stroke-width:0.85958278;stroke-linecap:butt;stroke-linejoin:miter;stroke-miterlimit:4;stroke-dasharray:none;stroke-dashoffset:0;stroke-opacity:1;color-rendering:auto;image-rendering:auto;shape-rendering:auto;text-rendering:auto;enable-background:accumulate"
       d="m 62.533203,204.43945 -0.275391,0.23243 c -1.881667,1.58631 -3.175472,3.76094 -3.669921,6.17187 l -0.07422,0.36523 0.349609,0.125 c 1.178391,0.42527 2.421059,0.64549 3.673828,0.6504 h 0.002 0.002 c 1.253712,-0.004 2.496226,-0.22169 3.675781,-0.64649 l 0.351562,-0.12695 -0.07617,-0.36524 c -0.497599,-2.41365 -1.79442,-4.58898 -3.681641,-6.17382 z m 0.002,1.2168 c 1.451978,1.32967 2.471817,3.03895 2.955078,4.94727 -0.958582,0.29818 -1.943689,0.51807 -2.949218,0.52148 -1.005816,-0.004 -1.990561,-0.22263 -2.949219,-0.52148 0.480434,-1.907 1.49525,-3.61633 2.943359,-4.94727 z"
       id="path9433"
       inkscape:connector-curvature="0" />
    <path
       style="color:#000000;font-style:normal;font-variant:normal;font-weight:normal;font-stretch:normal;font-size:medium;line-height:normal;font-family:sans-serif;font-variant-ligatures:normal;font-variant-position:normal;font-variant-caps:normal;font-variant-numeric:normal;font-variant-alternates:normal;font-feature-settings:normal;text-indent:0;text-align:start;text-decoration:none;text-decoration-line:none;text-decoration-style:solid;text-decoration-color:#000000;letter-spacing:normal;word-spacing:normal;text-transform:none;writing-mode:lr-tb;direction:ltr;text-orientation:mixed;dominant-baseline:auto;baseline-shift:baseline;text-anchor:start;white-space:normal;shape-padding:0;clip-rule:nonzero;display:inline;overflow:visible;visibility:visible;opacity:1;isolation:auto;mix-blend-mode:normal;color-interpolation:sRGB;color-interpolation-filters:linearRGB;solid-color:#000000;solid-opacity:1;vector-effect:none;fill:#f9f9f9;fill-opacity:1;fill-rule:nonzero;stroke:none;stroke-width:0.85958278;stroke-linecap:butt;stroke-linejoin:miter;stroke-miterlimit:4;stroke-dasharray:none;stroke-dashoffset:0;stroke-opacity:1;color-rendering:auto;image-rendering:auto;shape-rendering:auto;text-rendering:auto;enable-background:accumulate"
       d="m 62.541016,203.32812 c -6.031868,10e-6 -10.931642,4.89978 -10.931641,10.93165 -6e-6,6.03187 4.899769,10.93164 10.931641,10.93164 6.031874,0 10.931647,-4.89977 10.93164,-10.93164 10e-7,-6.03188 -4.89977,-10.93165 -10.93164,-10.93165 z m 0,0.86133 c 5.567317,0 10.072266,4.503 10.072265,10.07032 6e-6,5.56732 -4.504944,10.07226 -10.072265,10.07226 -5.567319,0 -10.070319,-4.50495 -10.070313,-10.07226 0,-5.56732 4.502998,-10.07032 10.070313,-10.07032 z"
       id="path9435"
       inkscape:connector-curvature="0" />
    <text
       id="text9441"
       y="217.74228"
       x="80.696777"
       style="font-style:normal;font-variant:normal;font-weight:normal;font-stretch:normal;font-size:19.75555611px;line-height:1.25;font-family:'Segoe UI Emoji';-inkscape-font-specification:'Segoe UI Emoji';letter-spacing:0px;word-spacing:0px;fill:#f9f9f9;fill-opacity:1;stroke:none;stroke-width:0.30119339"
       xml:space="preserve"><tspan
         style="font-style:normal;font-variant:normal;font-weight:normal;font-stretch:normal;font-size:19.75555611px;font-family:FreeSans;-inkscape-font-specification:FreeSans;fill:#f9f9f9;fill-opacity:1;stroke-width:0.30119339"
         y="217.74228"
         x="80.696777"
         id="tspan9439"
         sodipodi:role="line">BISWAS</tspan></text>
    <text
       id="text9445"
       y="225.22523"
       x="82.118782"
       style="font-style:normal;font-variant:normal;font-weight:normal;font-stretch:normal;font-size:6.94972229px;line-height:1.25;font-family:sans-serif;-inkscape-font-specification:'sans-serif, Normal';font-variant-ligatures:normal;font-variant-position:normal;font-variant-caps:all-small-caps;font-variant-numeric:normal;font-feature-settings:normal;text-align:start;letter-spacing:0px;word-spacing:0px;writing-mode:lr-tb;text-anchor:start;fill:#f9f9f9;fill-opacity:1;stroke:none;stroke-width:0.26458332"
       xml:space="preserve"><tspan
         style="font-style:normal;font-variant:normal;font-weight:normal;font-stretch:normal;font-size:6.94972229px;font-family:sans-serif;-inkscape-font-specification:'sans-serif, Normal';font-variant-ligatures:normal;font-variant-position:normal;font-variant-caps:all-small-caps;font-variant-numeric:normal;font-feature-settings:normal;text-align:start;writing-mode:lr-tb;text-anchor:start;fill:#f9f9f9;fill-opacity:1;stroke-width:0.26458332"
         y="225.22523"
         x="82.118782"
         id="tspan9443"
         sodipodi:role="line">C   A   P   I   T   A   L</tspan></text>
    <rect
       y="203.32278"
       x="77.600143"
       height="21.88938"
       width="0.39687502"
       id="rect9453"
       style="opacity:1;fill:#f9f9f9;fill-opacity:1;stroke:none;stroke-width:0.44282365;stroke-linecap:square;stroke-linejoin:miter;stroke-miterlimit:4;stroke-dasharray:none;stroke-dashoffset:0;stroke-opacity:1;paint-order:markers stroke fill" />
  </g>
</svg>
